<?xml version="1.0" encoding="UTF-8"?>
<svg width="10px" height="8px" viewBox="0 0 10 8" version="1.1" xmlns="http://www.w3.org/2000/svg" xmlns:xlink="http://www.w3.org/1999/xlink">
    <!-- Generator: Sketch 49.3 (51167) - http://www.bohemiancoding.com/sketch -->
    <title>Group</title>
    <desc>Created with Sketch.</desc>
    <defs>
        <path d="M6.65202684,8.23350762 C6.05226506,8.76760676 5.26347749,9.09184413 4.39939024,9.09184413 C2.52195885,9.09184413 1,7.5611937 1,5.67304071 C1,3.78488772 2.52195885,2.25423729 4.39939024,2.25423729 C5.26347749,2.25423729 6.05226506,2.57847465 6.65202684,3.11257379 C7.07283728,2.87828875 7.55742565,2.74482791 8.07317073,2.74482791 C9.6896139,2.74482791 11,4.05583344 11,5.67304071 C11,7.29024798 9.6896139,8.6012535 8.07317073,8.6012535 C7.55742565,8.6012535 7.07283728,8.46779267 6.65202684,8.23350762 Z M6.27582343,7.28068319 C7.18338071,7.28068319 7.91916823,6.54774127 7.91916823,5.64352861 C7.91916823,4.73931596 7.18338071,4.00637404 6.27582343,4.00637404 C5.36826615,4.00637404 4.63247863,4.73931596 4.63247863,5.64352861 C4.63247863,6.54774127 5.36826615,7.28068319 6.27582343,7.28068319 Z" id="path-1"></path>
    </defs>
    <g id="Palette" stroke="none" stroke-width="1" fill="none" fill-rule="evenodd">
        <g id="Tablet" transform="translate(-887.000000, -321.000000)">
            <g id="Group" transform="translate(886.000000, 319.000000)">
                <rect id="Rectangle" x="0" y="0" width="12" height="12"></rect>
                <mask id="mask-2" fill="white">
                    <use xlink:href="#path-1"></use>
                </mask>
                <use id="Mask" fill="#000000" xlink:href="#path-1"></use>
            </g>
        </g>
    </g>
</svg>